<?xml version="1.0" standalone="no"?>
<!DOCTYPE svg PUBLIC "-//W3C//DTD SVG 20010904//EN"
 "http://www.w3.org/TR/2001/REC-SVG-20010904/DTD/svg10.dtd">
<svg version="1.0" xmlns="http://www.w3.org/2000/svg"
 width="217.000000pt" height="217.000000pt" viewBox="0 0 217.000000 217.000000"
 preserveAspectRatio="xMidYMid meet">
<metadata>
Created by potrace 1.14, written by Peter Selinger 2001-2017
</metadata>
<g transform="translate(0.000000,217.000000) scale(0.100000,-0.100000)"
fill="#000000" stroke="none">
<path d="M826 1795 c-21 -11 -66 -15 -177 -15 -176 0 -201 -7 -243 -72 -16
-25 -18 -60 -17 -408 1 -430 0 -423 77 -463 26 -13 77 -16 309 -17 154 0 281
-3 284 -5 2 -3 6 -22 7 -43 7 -132 73 -231 179 -271 296 -111 786 86 856 343
17 60 14 148 -6 190 -30 64 -124 144 -232 200 l-33 17 0 -35 c0 -31 6 -38 66
-76 112 -71 154 -127 154 -205 -1 -211 -319 -412 -635 -401 -180 6 -270 79
-281 229 l-4 57 270 0 c290 0 313 3 358 52 12 14 25 36 28 49 3 13 6 190 6
393 0 411 3 392 -72 444 -31 20 -44 22 -191 22 -94 0 -160 4 -164 10 -10 16
-61 12 -75 -6 -31 -36 30 -98 63 -65 7 7 70 11 175 11 l164 0 29 -30 30 -29
-3 -300 c-3 -273 -5 -302 -21 -318 -17 -17 -56 -18 -627 -19 -575 -1 -611 0
-640 17 l-30 19 0 303 0 304 25 26 c25 25 29 25 181 26 103 1 167 -2 190 -11
44 -16 69 -2 69 37 0 41 -32 59 -69 40z m306 -839 c13 -24 13 -24 -9 -48 -20
-22 -47 -23 -67 -2 -21 21 -20 40 3 63 24 24 57 18 73 -13z"/>
<path d="M508 1667 c-45 -17 -47 -28 -48 -294 0 -249 0 -252 23 -279 l23 -26
584 -1 584 0 22 26 c22 25 22 31 21 278 -1 244 -1 253 -22 277 l-22 26 -572 0
c-315 1 -582 -2 -593 -7z"/>
<path d="M302 1202 c-65 -36 -145 -114 -172 -168 -18 -37 -24 -64 -23 -112 2
-174 176 -329 481 -427 78 -25 82 -28 82 -56 0 -124 138 -206 249 -149 152 77
113 308 -55 324 -61 6 -90 -3 -138 -45 l-44 -39 -89 31 c-180 63 -306 140
-373 226 -43 56 -56 78 -42 69 7 -4 7 3 0 22 -16 42 -1 114 33 161 25 35 82
85 127 110 8 5 12 21 10 42 l-3 35 -43 -24z m611 -673 c60 -60 45 -154 -29
-185 -91 -38 -183 61 -138 148 23 44 53 60 106 55 25 -2 53 -10 61 -18z"/>
<path d="M823 499 c-31 -11 -45 -42 -33 -73 19 -51 87 -53 104 -3 18 52 -22
94 -71 76z"/>
</g>
</svg>
